#!OML:ASF F:\VICON\USERDATA\INSTALL\rory3\rory3.ASF
:FULLY-SPECIFIED
:DEGREES
44
root 0.1794408515221853 17.583008997782418 20.658959437861327 0.3690219150650304 -2.9523620620469053 -3.630938457785746
lfemur -27.710662787408797 -2.810211527426478 -19.204940321448017
ltibia 31.092961159153877
lfoot 0.6880082337543194 -5.172200031049748
ltoes -3.7844034381703704
rfemur 10.17442069286179 1.9709353161439953 28.958297855944167
rtibia 64.3603001477363
rfoot 16.996862189036932 3.927994081978861
rtoes 3.3783094944018583
lowerback 10.990200719381114 3.021698475063088 4.2264720993001905
upperback -0.9133599020860121 4.647470624611904 0.6373306757584947
thorax -7.01769154283412 2.1027705372225904 -2.4423691499307445
lowerneck -18.682124690311895 -4.5751645962188565 -1.6652445788777948
upperneck 17.358636981571898 -6.403633234411382 2.7453567681087208
head 8.602767733399132 -2.8058475888105128 0.45796611838170853
lclavicle -2.457938696267794e-15 5.471366207905525e-16
lhumerus -56.15860058137208 1.9428550845580395 87.88807193095595
lradius 56.18672796683916
lwrist 13.655873548752
lhand -23.561763566264265 14.677383572822375
lfingers 7.125019999999999
lthumb 2.9004241761709544 44.64051793558659
rclavicle -2.457938696267794e-15 5.471366207905525e-16
rhumerus -32.86023109538364 -0.7376201559474849 -90.91950064413517
rradius 72.4101829674756
rwrist -4.878424297873682
rhand -18.015732718709124 31.60427935944474
rfingers 7.125019999999999
rthumb 8.254931278220472 1.855353986811331
45
root 0.2921822189946019 17.747985022904682 21.99414118049794 -0.4963106487928999 -3.170900091376873 -2.096917849827415
lfemur -23.357435805553347 -2.2436879006356083 -21.860061732145727
ltibia 34.620982886682384
lfoot -1.9721295634959293 -4.659327082264233
ltoes -1.860538116936362
rfemur 1.6781504616764273 0.460424701814552 26.239002258488163
rtibia 81.09424136342676
rfoot 26.828716805451524 1.8534872363023798
rtoes 15.472756456844879
lowerback 11.610451023076585 2.9320663301609 2.6704492707880982
upperback -0.7391975019860317 4.339499750399916 0.24006392590141612
thorax -7.19644071867508 1.9908102284946334 -1.709025205365917
lowerneck -18.581593375500486 -4.193264389563755 -1.7382990642649307
upperneck 17.37689497581123 -5.899010918837243 2.7941870687276493
head 8.61448056979442 -2.561732511365766 0.5220841697955183
lclavicle -2.0916099457831784e-15 8.03956970492029e-16
lhumerus -55.003445386285634 1.5738445489987578 87.96764059344964
lradius 56.79233292378776
lwrist 15.372663565777609
lhand -24.110382838924696 14.27745806606452
lfingers 7.125019999999999
lthumb 2.3705955232610054 44.23923014982658
rclavicle -2.0916099457831784e-15 8.03956970492029e-16
rhumerus -34.625480454785034 -2.330823839978801 -90.43126192773893
rradius 70.89425725580618
rwrist -3.5742617042817493
rhand -17.416026084557124 31.15518626547859
rfingers 7.125019999999999
rthumb 8.833687169835159 1.4049663994828063
46
root 0.38363622194592767 17.89302415801588 23.70943165142026 -1.1040838268026936 -3.1999104058974757 -0.746040745739095
lfemur -17.742621844653836 -2.227517085699024 -23.786481307734213
ltibia 35.95241145574068
lfoot -5.233810830852795 -2.6701977019464733
ltoes -0.5165657497796898
rfemur -7.699975445868796 -0.9866838751557223 24.29132545946252
rtibia 95.57433823000889
rfoot 26.70103108510964 -2.1313922540676007
rtoes 21.925628077106197
lowerback 12.305126518795582 2.6974298862177903 1.3621470557075535
upperback -0.3911260776734253 3.8674650546075533 0.07105137638956038
thorax -7.289953195908154 1.799049404210164 -0.8143403366287456
lowerneck -18.517548055511146 -3.520237911750072 -1.7333967125266816
upperneck 17.281331947068356 -4.963905208713274 2.6822981838056847
head 8.589363198212933 -2.1359332713070955 0.5619262501755276
lclavicle -1.1953081543904251e-15 1.432387993478589e-15
lhumerus -52.17749309467841 0.439585033004529 88.73493124411826
lradius 58.41171123641163
lwrist 17.22266201158294
lhand -25.21041622483757 13.058252314769332
lfingers 7.125019999999999
lthumb 1.3082747505746697 43.02289979455483
rclavicle -1.1953081543904251e-15 1.432387993478589e-15
rhumerus -35.634212175798346 -3.7218578754896168 -89.89997674469905
rradius 69.24238267375928
rwrist -2.0021187770769724
rhand -16.83826297139967 30.787046770159684
rfingers 7.125019999999999
rthumb 9.391291312070912 1.0101882116910117
47
root 0.4254433806843213 17.957032109614502 24.68485565880607 -1.548717581744795 -2.8753663911558105 0.07702498470208496
lfemur -13.018445318416727 -2.6810305269918633 -25.483300810489666
ltibia 35.11737662692917
lfoot -8.624659394064016 -1.1611587418460636
ltoes -0.3047749429496216
rfemur -17.50892773919127 -2.596998747911038 22.992161000229952
rtibia 102.85339295919391
rfoot 17.97109626717583 -5.456884836123138
rtoes 19.863668754213855
lowerback 12.762100439589132 2.1746598711555514 0.21131703718751083
upperback -0.044547030343797644 3.0152033183594984 0.059920030413678216
thorax -7.312786217621163 1.4303025777472558 -0.03810497468406404
lowerneck -18.432331887909726 -2.914799862551406 -1.7906874406101245
upperneck 17.218543848004295 -4.081299593088126 2.408342906875207
head 8.55271671610953 -1.753059760653688 0.561760781268762
lclavicle -1.425493699997196e-15 1.2710061124167129e-15
lhumerus -48.624042185646765 -1.503682552191238 89.44373231880728
lradius 59.77653632916604
lwrist 17.85183859316033
lhand -25.945854130131575 11.976753669343768
lfingers 7.125019999999999
lthumb 0.5980666229509436 41.94452668106509
rclavicle -1.425493699997196e-15 1.2710061124167129e-15
rhumerus -36.848896814560376 -5.291639927908553 -89.51758233025748
rradius 67.68769553820346
rwrist -0.9086876175338789
rhand -16.572061545573213 30.564204524572308
rfingers 7.125019999999999
rthumb 9.648199111000734 0.7806849555329871
